<svg width="24" height="24" viewBox="0 0 24 24" fill="none" xmlns="http://www.w3.org/2000/svg">
<path d="M17 10C17 11.6569 15.6569 13 14 13C12.3431 13 11 11.6569 11 10C11 8.34314 12.3431 7 14 7C15.6569 7 17 8.34314 17 10Z" fill="#3F4E5D" fill-opacity="0.6"/>
<path fill-rule="evenodd" clip-rule="evenodd" d="M4.0098 5.19922L4 15C4 15.069 4.00351 15.1373 4.01031 15.2045C4.10364 16.1233 4.81891 16.8583 5.72849 16.9817C5.81726 16.9938 5.9079 17 6 17H22C22.0921 17 22.1827 16.9938 22.2715 16.9817C23.1811 16.8583 23.8964 16.1233 23.9897 15.2045C23.9965 15.1373 24 15.069 24 15V5C24 4.93097 23.9965 4.86273 23.9897 4.79553C23.8966 3.87915 23.185 3.14575 22.2789 3.01929C22.1878 3.00659 22.0947 3 22 3H6C5.90884 3 5.81915 3.0061 5.7312 3.01794C4.75375 3.14917 4 3.98657 4 5C4 5.06726 4.0033 5.13367 4.0098 5.19922ZM8 5C8 6.10193 7.10889 6.99567 6.008 7L6.00201 13C7.10565 13.0011 8 13.8961 8 15H20C20 13.8954 20.8954 13 22 13V7C20.8954 7 20 6.10461 20 5H8Z" fill="#3F4E5D" fill-opacity="0.6"/>
<path d="M0 6C0 5.44772 0.447715 5 1 5C1.55228 5 2 5.44772 2 6V19H19C19.5523 19 20 19.4477 20 20C20 20.5523 19.5523 21 19 21H2C0.899994 21 0 20.1 0 19L0.0100098 10H0V6Z" fill="#3F4E5D" fill-opacity="0.6"/>
</svg>
