<svg width="24" height="24" viewBox="0 0 24 24" fill="none" xmlns="http://www.w3.org/2000/svg">
<circle cx="12" cy="12" r="12" fill="url(#paint0_linear_14581_14941)"/>
<path fill-rule="evenodd" clip-rule="evenodd" d="M15.2203 7.18049L12.2049 4.21841C12.1023 4.11763 12.0008 4.11763 11.8982 4.21841L8.88223 7.18049C8.72884 7.33113 8.83145 7.53165 9.03562 7.53165H10.4156C10.5182 7.53165 10.6197 7.63243 10.6197 7.73217V10.142C10.6197 10.2428 10.7224 10.3426 10.8239 10.3426H13.2776C13.3802 10.3426 13.4818 10.2418 13.4818 10.142V7.73217C13.4818 7.63139 13.5844 7.53165 13.6859 7.53165H15.0151C15.2203 7.53165 15.3224 7.33113 15.2203 7.18049ZM19.923 12.1504L16.9071 15.1125C16.805 15.2631 16.6003 15.1629 16.5495 14.9613V9.03768C16.5495 8.83716 16.7537 8.73638 16.9071 8.88703L19.923 11.8491C20.0256 11.9499 20.0256 12.0496 19.923 12.1504ZM4.07696 12.1504L7.09289 15.1125C7.24628 15.2632 7.45097 15.1629 7.45044 14.9613V9.0377C7.45044 8.83718 7.24628 8.7364 7.09289 8.88705L4.07696 11.8491C3.97435 11.9499 3.97435 12.0496 4.07696 12.1504ZM12.2049 19.7815L15.2203 16.8194C15.3224 16.6688 15.2203 16.4677 15.0151 16.4683H13.6859C13.5844 16.4683 13.4818 16.3685 13.4818 16.2677V13.8579C13.4818 13.7581 13.3802 13.6573 13.2776 13.6573H10.8239C10.7224 13.6573 10.6197 13.7571 10.6197 13.8579V16.2677C10.6197 16.3675 10.5182 16.4683 10.4156 16.4683H9.03562C8.83145 16.4683 8.72884 16.6688 8.88223 16.8194L11.8982 19.7815C12.0008 19.8823 12.1023 19.8823 12.2049 19.7815Z" fill="white"/>
<defs>
<linearGradient id="paint0_linear_14581_14941" x1="4.23983" y1="2.90666" x2="19.1402" y2="21.4192" gradientUnits="userSpaceOnUse">
<stop stop-color="#F21B26"/>
<stop offset="1" stop-color="#E61721"/>
</linearGradient>
</defs>
</svg>
